<svg xmlns="http://www.w3.org/2000/svg" viewBox="0 0 240 180" width="240" height="180" role="img" aria-label="새 대화를 시작해보세요">
  <defs>
    <linearGradient id="ec-rag" x1="0" y1="0" x2="1" y2="1">
      <stop offset="0%" stop-color="#0ea5b4" stop-opacity="0.9"/>
      <stop offset="100%" stop-color="#0ea5b4" stop-opacity="0.35"/>
    </linearGradient>
    <linearGradient id="ec-db" x1="0" y1="0" x2="1" y2="1">
      <stop offset="0%" stop-color="#1f2d4d" stop-opacity="0.9"/>
      <stop offset="100%" stop-color="#1f2d4d" stop-opacity="0.35"/>
    </linearGradient>
    <linearGradient id="ec-hybrid" x1="0" y1="0" x2="1" y2="0">
      <stop offset="0%" stop-color="#0ea5b4"/>
      <stop offset="100%" stop-color="#1f2d4d"/>
    </linearGradient>
  </defs>
  <!-- Background plate -->
  <rect x="0" y="0" width="240" height="180" fill="none"/>
  <!-- Document stack (back) -->
  <rect x="46" y="34" width="120" height="100" rx="10" fill="#ffffff" opacity="0.55" stroke="url(#ec-rag)" stroke-width="1.5"/>
  <line x1="62" y1="58" x2="142" y2="58" stroke="url(#ec-rag)" stroke-width="2" stroke-linecap="round"/>
  <line x1="62" y1="72" x2="130" y2="72" stroke="url(#ec-rag)" stroke-width="2" stroke-linecap="round" opacity="0.7"/>
  <line x1="62" y1="86" x2="118" y2="86" stroke="url(#ec-rag)" stroke-width="2" stroke-linecap="round" opacity="0.5"/>
  <!-- Bar chart (front) -->
  <rect x="78" y="62" width="120" height="100" rx="10" fill="#ffffff" stroke="url(#ec-db)" stroke-width="1.8"/>
  <rect x="92" y="124" width="14" height="22" rx="3" fill="url(#ec-db)"/>
  <rect x="116" y="108" width="14" height="38" rx="3" fill="url(#ec-db)" opacity="0.8"/>
  <rect x="140" y="94" width="14" height="52" rx="3" fill="url(#ec-hybrid)"/>
  <rect x="164" y="116" width="14" height="30" rx="3" fill="url(#ec-db)" opacity="0.7"/>
  <!-- Spark / search glyph -->
  <circle cx="188" cy="48" r="14" fill="none" stroke="url(#ec-hybrid)" stroke-width="2.4"/>
  <line x1="198" y1="58" x2="208" y2="68" stroke="url(#ec-hybrid)" stroke-width="2.4" stroke-linecap="round"/>
  <path d="M188 42v12M182 48h12" stroke="url(#ec-hybrid)" stroke-width="1.8" stroke-linecap="round"/>
</svg>
